<?xml version="1.0" standalone="no"?>
<!DOCTYPE svg PUBLIC "-//W3C//DTD SVG 20010904//EN"
 "http://www.w3.org/TR/2001/REC-SVG-20010904/DTD/svg10.dtd">
<svg version="1.0" xmlns="http://www.w3.org/2000/svg"
 width="200.000000pt" height="200.000000pt" viewBox="0 0 200.000000 200.000000"
 preserveAspectRatio="xMidYMid meet">

<g transform="translate(0.000000,200.000000) scale(0.100000,-0.100000)"
fill="#000000" stroke="none">
<path d="M537 1669 c-87 -20 -155 -75 -198 -159 -18 -35 -24 -66 -27 -143 -4
-94 -3 -100 28 -163 34 -69 76 -108 160 -148 39 -18 68 -22 235 -26 l189 -5 8
-43 c10 -60 36 -101 78 -123 31 -17 59 -19 246 -19 201 0 213 -1 255 -23 24
-13 57 -42 74 -66 24 -34 29 -52 30 -99 0 -77 -27 -128 -90 -167 l-48 -30
-190 -3 c-105 -2 -205 -1 -224 3 -47 8 -97 63 -118 127 -10 29 -19 54 -20 56
-1 1 -24 -8 -51 -20 -64 -29 -176 -31 -253 -4 -66 23 -127 81 -137 130 l-6 36
-90 0 -91 0 7 -47 c24 -179 211 -315 434 -314 42 0 97 4 122 10 65 15 67 14
74 -21 9 -50 40 -93 79 -111 50 -24 437 -25 517 -1 145 43 233 159 247 325 11
125 -47 250 -142 309 l-35 22 31 36 c49 55 69 108 69 184 0 98 -29 169 -100
240 -80 79 -114 88 -347 88 -133 0 -193 4 -216 14 -44 18 -85 69 -99 122 l-12
44 -176 -1 c-96 -1 -192 -5 -213 -10z m393 -189 c0 -53 36 -109 83 -131 36
-16 67 -19 228 -19 176 0 188 -1 220 -23 49 -32 83 -105 74 -157 -8 -46 -43
-93 -86 -115 -41 -22 -387 -21 -429 0 -36 18 -64 58 -80 112 l-13 41 -166 4
c-146 3 -170 6 -201 24 -105 61 -108 208 -6 269 39 24 48 25 209 25 l167 0 0
-30z"/>
</g>
</svg>
